<svg width="1440.208252" height="939.623901" viewBox="0 0 1440.21 939.624" fill="none" xmlns="http://www.w3.org/2000/svg" xmlns:xlink="http://www.w3.org/1999/xlink">
	<desc>
			Created with Pixso.
	</desc>
	<defs/>
	<path id="Vector 1" d="M0.71 931.25C1.51 841.2 0.57 0.5 0.57 0.5L725.57 0.5L1440.07 0.5C1291.06 42.5 1342.22 80.83 1277.56 132.5C1155.56 230 1005.51 53.68 967.57 179C907.17 378.5 785.66 154 697.6 244C652.09 290.5 678.5 446 515 375.5C481.48 361.04 414.07 316 328.07 335.5C242.07 355 198.17 397.5 134.07 483.5C21.99 633.87 2.8 883.91 0.71 931.25C0.67 936 0.62 938.66 0.57 939C0.45 939.72 0.46 936.96 0.71 931.25Z" fill="#050D4D" fill-opacity="1.000000" fill-rule="nonzero"/>
	<path id="Vector 1" d="M0.57 939C-0.48 945.73 8.46 652.02 134.07 483.5C198.17 397.5 242.07 355 328.07 335.5C414.07 316 481.48 361.04 515 375.5C678.5 446 652.09 290.5 697.6 244C785.66 154 907.17 378.5 967.57 179C1005.51 53.68 1155.56 230 1277.56 132.5C1342.22 80.83 1291.06 42.5 1440.07 0.5L725.57 0.5L0.57 0.5C0.57 0.5 1.61 932.27 0.57 939Z" stroke="#000000" stroke-opacity="1.000000" stroke-width="1.000000"/>
</svg>
