<svg width="317.499115" height="325.973267" viewBox="0 0 317.499 325.973" fill="none" xmlns="http://www.w3.org/2000/svg" xmlns:xlink="http://www.w3.org/1999/xlink">
	<desc>
			Created with Pixso.
	</desc>
	<defs/>
	<!-- <path id="Vector" d="M317.49 162.98C317.49 253 246.42 325.97 158.75 325.97C71.07 325.97 0 253 0 162.98C0 72.97 71.07 0 158.75 0C246.42 0 317.49 72.97 317.49 162.98Z" fill="#050D4D" fill-opacity="1.000000" fill-rule="evenodd"/> -->
	<path id="Vector" d="M87.77 149.74C87.77 149.74 86.13 152.24 82.29 149.74C78.45 147.23 78.02 140.35 79.24 134.1C80.46 127.84 88.38 113.45 103.62 102.81C118.85 92.17 139.57 85.29 159.07 95.3C170.1 100.97 179.15 109.73 182.93 122.01C187.37 136.47 185.61 152.06 177.42 164.74C166.64 181.41 146.34 198.44 126.14 199.31C123.8 199.41 121.25 199.2 119.49 197.62C117.42 195.78 117.04 192.44 118.15 189.88C121.49 182.14 132.77 182.2 139.35 179.41C151.44 174.29 162.07 168.95 168.89 156.9C174.94 146.21 176.3 133.16 171.88 121.58C162.51 97.07 128.91 96.41 110.57 109.34C98.94 117.53 82.37 133.52 87.77 149.74Z" fill="#FF5500" fill-opacity="1.000000" fill-rule="nonzero"/>
	<path id="Vector" d="M181.41 104.88C181.97 102.24 185.35 100.81 187.51 99.85C192.65 97.57 198.53 97.23 204.04 97.95C204.9 98.06 205.76 98.21 206.61 98.43C214.96 100.53 221.84 103.7 228.53 109.29C232.2 112.35 237.69 119.7 232.79 123.49C229.32 126.17 226.31 122.13 223.36 120.04C217.24 115.71 210.01 113.06 202.62 112.3C199.42 111.97 196.18 111.99 192.98 112.39C190.53 112.7 187.75 114.17 185.53 112.77C182.02 110.58 180.83 107.64 181.41 104.88Z" fill="#FF5500" fill-opacity="1.000000" fill-rule="nonzero"/>
	<path id="Vector" d="M190.28 152.38C190.44 152.22 190.62 152.08 190.82 151.96C192.05 151.23 193.61 151.81 194.86 152.48C203.32 157.05 210.92 163.71 217.81 170.45C224.07 176.55 229.75 184.33 230.61 193.41C231.48 202.72 226.93 212.02 220.04 218.15C213.16 224.27 204.22 227.53 195.22 228.99C186.22 230.45 177.06 230.22 167.95 230.15C160.73 230.09 153.38 230.12 146.49 227.89C143.2 226.83 139.95 225.17 137.82 222.38C135.99 219.99 134.76 215.64 136.32 212.75C137.96 209.7 142.22 210.5 145.14 211.02C163.19 214.25 181.84 216.31 199.73 212.22C204.07 211.22 208.41 209.83 212.06 207.22C215.7 204.6 218.59 200.59 219.07 196.05C219.52 191.75 217.77 187.45 215.17 184.04C212.57 180.63 209.17 177.96 205.82 175.34C201.01 171.59 196.21 167.84 191.4 164.08C190.65 163.5 189.88 162.89 189.36 162.07C188.11 160.14 188.56 157.58 189.05 155.32C189.28 154.27 189.57 153.12 190.28 152.38Z" fill="#FF5500" fill-opacity="1.000000" fill-rule="nonzero"/>
	<path id="Vector" d="M100.05 169.81C98.93 171.82 97.82 173.83 96.73 175.86C92.65 183.52 88.88 191.35 85.67 199.42C82.7 206.89 78.39 215.91 79.42 224.15C79.72 226.54 80.96 228.95 83.08 229.98C85.06 230.94 87.47 230.54 89.36 229.42C96.84 225.03 98.27 214.41 101.16 206.92C103.69 200.38 106.21 193.83 108.74 187.3C113.79 174.21 118.84 161.13 123.89 148.05C124.72 145.88 125.48 143.18 123.99 141.43C122.85 140.09 120.79 139.97 119.2 140.68C113.9 143.07 110.69 151.68 107.82 156.47C105.17 160.87 102.56 165.32 100.05 169.81Z" fill="#FF5500" fill-opacity="1.000000" fill-rule="nonzero"/>
	<path id="Vector" d="M249.27 222.31C249.27 225.4 246.22 228.05 243.49 228.71C239.39 229.7 238.3 226.16 238.3 222.63C238.3 220.06 239.56 217.55 241.96 216.53C246.16 214.74 249.27 218.19 249.27 222.31Z" fill="#FF5500" fill-opacity="1.000000" fill-rule="nonzero"/>
	<path id="Vector" d="M118.85 222.94C118.85 226.05 115.01 229.82 112.15 229.82C109.29 229.82 107.27 227.32 107.27 223.57C107.27 220.16 110.06 217.31 113.37 217.31C116.23 217.31 118.85 219.81 118.85 222.94Z" fill="#FF5500" fill-opacity="1.000000" fill-rule="nonzero"/>
	<path id="Vector" d="M174.14 140.8C173.85 144.04 173.04 147.21 171.88 150.24C169.81 155.67 167.01 160.99 162.92 165.11C158.93 169.13 153.89 172.57 149.02 175.08C146.58 176.33 143 178.39 139.88 179.46C136.22 180.71 132.41 181.97 128.56 181.58C126.87 181.41 125.22 180.82 123.8 179.86C122.3 178.84 121.39 177.5 120.65 175.86C120.09 174.61 119.51 172.86 118.18 172.24C117.07 171.71 115.22 171.89 114 171.55C112.25 171.07 110.51 170.33 109.1 169.13C105.62 166.15 108.78 166.72 109.08 166.79C108.64 166.6 108.68 164.38 108.83 164.05C109.26 163.13 111.42 164.48 111.54 163.5C111.6 162.99 111.08 161.6 111.46 161.27C111.83 160.94 112.76 161 113.98 162.25C115.9 164.23 117.97 166.95 119.19 165.67C120.38 164.44 117.94 163.19 117.94 163.19C117.94 163.19 118.44 161.53 118.55 161.31C119.16 160.06 119.16 159.43 120.05 158.07C120.05 158.07 122.69 160.6 122.96 160.8C123.7 161.36 124.46 161.66 125.24 161.67C122.97 163.81 119.26 168.2 121.9 172.26C125.56 177.89 137.71 175.52 139.25 174.83C140.79 174.14 152.97 167.77 152.67 164.07C152.37 160.37 150.09 161.67 146.36 161.65C142.62 161.62 137.75 161 135.92 159.75C134.47 158.75 132.29 157.85 129.9 157.76C130.08 156.69 128.99 157.45 128.48 156.21C128.16 155.44 128.77 154.57 129.46 154.12C131.1 153.06 131.92 152.35 132.99 150.64C134.08 148.9 135.5 147.37 137.14 146.16C138.38 145.24 140.48 144.34 142.01 144.11C143.1 143.94 144 144.26 144.99 144.21C144.02 145.27 142.91 146.53 142.01 147.23C141.11 147.93 140.23 148.58 139.37 149.17C139.26 149.27 139.23 149.42 139.27 149.54C139.31 149.67 139.44 149.74 139.57 149.74C142.08 149.39 144.95 149.13 148.1 149.11C151.57 149.09 154.69 149.34 157.39 149.72C157.47 149.73 157.53 149.67 157.53 149.59L157.53 144.98C157.53 144.88 157.64 144.81 157.72 144.87C158.73 145.57 163.53 148.64 165.17 144.73C167 140.35 165.78 137.85 164.44 135.7C163.39 134.02 164.04 129.84 164.39 128.05C166.18 128.01 167.97 128.31 169.58 129.11C174.05 131.31 174.58 135.96 174.14 140.8Z" fill="#FCAA7E" fill-opacity="1.000000" fill-rule="nonzero"/>
	<path id="Vector" d="M152.67 164.07C152.97 167.77 140.79 174.14 139.25 174.83C137.71 175.52 125.56 177.89 121.9 172.26C119.26 168.2 122.97 163.81 125.24 161.67C125.89 161.69 126.54 161.52 127.22 161.12C128.2 160.53 129.42 159.34 129.79 158.21C129.84 158.03 129.88 157.88 129.9 157.76C132.29 157.85 134.47 158.75 135.92 159.75C137.74 161 142.62 161.62 146.36 161.65C150.09 161.67 152.37 160.37 152.67 164.07Z" fill="#FFFFFF" fill-opacity="1.000000" fill-rule="nonzero"/>
	<path id="Vector" d="M154.11 131.01L153.97 135.62C153.96 136.03 153.62 136.34 153.22 136.3L150.04 136.03C149.51 135.33 148.61 134.71 148.1 134.18C147.09 133.13 146.17 131.99 145.34 130.79C145.09 130.42 144.84 129.88 145.14 129.53C145.34 129.3 145.69 129.28 146 129.3C148.06 129.42 150.1 129.9 152.07 130.51C152.77 130.72 153.44 130.92 154.11 131.01Z" fill="#FCAA7E" fill-opacity="1.000000" fill-rule="nonzero"/>
	<path id="Vector" d="M165.17 144.73C163.53 148.64 158.73 145.57 157.72 144.87C157.64 144.81 157.53 144.88 157.53 144.98L157.53 149.59C157.53 149.67 157.47 149.73 157.39 149.72C154.69 149.34 151.57 149.09 148.1 149.11C144.95 149.13 142.08 149.39 139.57 149.74C139.44 149.74 139.31 149.67 139.27 149.54C139.23 149.42 139.26 149.27 139.37 149.17C140.23 148.58 141.11 147.93 142.01 147.23C142.91 146.53 144.02 145.27 144.99 144.21C145.21 144.19 145.44 144.17 145.67 144.11C147.87 143.55 149.34 140.31 150.15 138.39C150.36 137.89 150.55 137.34 150.43 136.81C150.41 136.77 150.4 136.73 150.39 136.69C150.32 136.46 150.2 136.24 150.04 136.03L153.22 136.3C153.62 136.34 153.96 136.03 153.97 135.62L154.11 131.01C154.11 131.02 154.12 131.02 154.13 131.02C155.04 131.14 155.93 131.06 156.85 130.55C158.56 129.6 159.99 128.7 161.96 128.32C162.32 128.25 162.67 128.19 163.03 128.15C163.49 128.09 163.94 128.06 164.39 128.05C164.04 129.84 163.39 134.02 164.44 135.7C165.78 137.85 167 140.35 165.17 144.73Z" fill="#FFFFFF" fill-opacity="1.000000" fill-rule="nonzero"/>
	<path id="Vector" d="M158.77 135.66C158.89 136.59 158.75 136.83 158.16 136.91C157.33 137.03 156.83 136.56 156.33 135.66C155.42 134.01 156.03 132.53 157.55 133.78C158.37 134.46 158.71 135.21 158.77 135.66Z" fill="#FCAA7E" fill-opacity="1.000000" fill-rule="nonzero"/>
</svg>
