<svg width="161.000061" height="157.152588" viewBox="0 0 161 157.153" fill="none" xmlns="http://www.w3.org/2000/svg" xmlns:xlink="http://www.w3.org/1999/xlink">
	<desc>
			Created with Pixso.
	</desc>
	<defs/>
	<path id="Vector" d="M71.76 1.02C72.29 1.05 72.82 1.07 73.36 1.09C74.96 1.16 76.56 1.23 78.17 1.3C78.16 1.57 78.15 1.84 78.14 2.11C76.35 1.79 74.74 2 73.3 2.72C68.49 2.52 63.69 2.31 58.88 2.11C63.17 1.75 67.46 1.39 71.76 1.02Z" fill="#E2C496" fill-opacity="1.000000" fill-rule="evenodd"/>
	<path id="Vector" d="M21.99 2.53C19.76 3.24 17.4 3.79 14.92 4.2C15.01 3.69 15.27 3.27 15.71 2.95C17.79 2.54 19.88 2.4 21.99 2.53Z" fill="#D2A776" fill-opacity="1.000000" fill-rule="evenodd"/>
	<path id="Vector" d="M58.9 2.53C63.61 2.53 68.33 2.53 73.04 2.53C73.04 3.64 72.51 4.2 71.47 4.2C66.87 4.47 62.42 4.19 58.12 3.37C58.12 2.81 58.38 2.53 58.9 2.53Z" fill="#CDEDF3" fill-opacity="1.000000" fill-rule="evenodd"/>
	<path id="Vector" d="M128.01 4.2C129.56 3.65 131.26 3.37 133.12 3.37C135.85 3.22 138.33 3.78 140.58 5.03C136.68 4.41 132.75 4.13 128.8 4.2C128.53 4.2 128.27 4.2 128.01 4.2Z" fill="#D0CAB3" fill-opacity="1.000000" fill-rule="evenodd"/>
	<path id="Vector" d="M58.12 3.37C62.42 4.19 66.87 4.47 71.47 4.2C71.47 4.48 71.47 4.76 71.47 5.03C64.39 5.17 57.33 5.03 50.26 4.62C52.71 3.45 55.33 3.03 58.12 3.37Z" fill="#D2D7C8" fill-opacity="1.000000" fill-rule="evenodd"/>
	<path id="Vector" d="M77.75 1.7C82.47 2.18 87.18 2.73 91.89 3.37C96.19 4.45 100.64 5.29 105.24 5.87C108.54 7.09 111.94 7.92 115.45 8.36C116.6 8.91 117.91 9.19 119.37 9.2C121.5 9.35 123.33 8.8 124.87 7.53C126.66 7.15 127.7 6.04 128.01 4.2C128.27 4.2 128.53 4.2 128.8 4.2C131.47 5.39 134.35 6.08 137.44 6.28C144.4 10.67 150.94 15.67 157.07 21.27C157.85 21.69 158.64 22.11 159.42 22.52C160.05 22.14 160.31 21.59 160.21 20.86C160.73 21.79 160.99 22.9 161 24.19C160.93 25.72 160.4 26.83 159.42 27.52C157.49 26.84 155.39 26.42 153.14 26.27C151.71 25.72 150.66 24.75 150 23.36C151.41 23.59 152.71 23.32 153.93 22.52C153.57 21.86 153.04 21.58 152.36 21.69C150.77 20.51 148.94 19.95 146.86 20.03C144.84 19.3 142.87 18.46 140.97 17.53C139.18 17.34 138.27 18.17 138.22 20.03C134.55 19.89 130.88 20.03 127.23 20.44C123.25 22.53 119.32 24.33 115.45 25.86C114.25 25.08 113.2 24.11 112.31 22.94C114.27 20.49 114.27 18.13 112.31 15.86C110.48 15.45 108.91 14.62 107.59 13.36C108.42 13.49 109.2 13.35 109.95 12.95C107.68 11.45 105.32 10.2 102.88 9.2C102.79 8.68 102.53 8.27 102.1 7.95C99.02 6.85 95.88 6.02 92.67 5.45C85.61 5.03 78.54 4.89 71.47 5.03C71.47 4.76 71.47 4.48 71.47 4.2C72.51 4.2 73.04 3.64 73.04 2.53C74.42 1.73 75.99 1.46 77.75 1.7Z" fill="#EBAD65" fill-opacity="1.000000" fill-rule="evenodd"/>
	<path id="Vector" d="M102.88 9.2C105.32 10.2 107.68 11.45 109.95 12.95C109.2 13.35 108.42 13.49 107.59 13.36C104.22 11.43 100.56 10.32 96.6 10.03C95.09 10.27 93.79 9.99 92.67 9.2C82.23 7.91 71.63 7.36 60.87 7.53C50.36 7.35 40.02 7.9 29.84 9.2C25.28 10.16 20.57 10.85 15.71 11.28C14.5 12.42 13.45 13.67 12.57 15.03C11.78 15.31 11.26 15.86 11 16.69C10.15 16.07 10.02 15.24 10.6 14.2C12.31 12.39 14.01 10.59 15.71 8.78C18.01 7.96 20.36 7.4 22.78 7.12C45.54 5.95 68.32 5.67 91.1 6.28C95.13 6.87 99.06 7.84 102.88 9.2Z" fill="#D58F48" fill-opacity="1.000000" fill-rule="evenodd"/>
	<path id="Vector" d="M128.8 4.2C132.75 4.13 136.68 4.41 140.58 5.03C147.77 9.32 154.32 14.6 160.21 20.86C160.31 21.59 160.05 22.14 159.42 22.52C158.64 22.11 157.85 21.69 157.07 21.28C150.94 15.67 144.4 10.67 137.44 6.28C134.35 6.08 131.47 5.39 128.8 4.2Z" fill="#D6924B" fill-opacity="1.000000" fill-rule="evenodd"/>
	<path id="Vector" d="M43.98 0.04C44.5 0.04 45.03 0.04 45.55 0.04C54.21 -0.12 62.85 0.16 71.47 0.87C67.28 1.42 63.09 1.98 58.9 2.53C58.38 2.53 58.12 2.81 58.12 3.37C55.33 3.03 52.71 3.45 50.26 4.62C57.33 5.03 64.39 5.17 71.47 5.03C78.54 4.9 85.61 5.03 92.67 5.45C95.88 6.02 99.02 6.85 102.1 7.95C102.53 8.27 102.79 8.68 102.88 9.2C99.06 7.84 95.13 6.86 91.1 6.28C68.32 5.67 45.54 5.95 22.78 7.12C20.36 7.4 18.01 7.96 15.71 8.78C14.01 10.59 12.31 12.39 10.6 14.2C10.02 15.24 10.15 16.07 11 16.69C11 16.97 11 17.25 11 17.53C10.22 19.13 9.44 20.8 8.64 22.52C7.87 25.13 7.61 27.9 7.86 30.85C6.81 39.16 6.29 47.77 6.28 56.67C5.42 76.38 7.13 95.81 11.39 114.98C14.01 121.09 16.63 127.19 19.24 133.3C19.63 132.22 19.76 131.11 19.64 129.97C21.19 133.27 22.76 136.6 24.35 139.97C23.67 139.16 23.15 139.16 22.78 139.97C24.4 145.05 27.54 146.71 32.2 144.96C36.17 141.24 39.57 137.07 42.41 132.47C42.07 133.82 41.8 135.21 41.62 136.63C41.73 137.91 42.26 138.74 43.2 139.13C41.5 142.37 39.79 145.7 38.09 149.13C37.17 150.65 36 151.9 34.56 152.88C31.68 153.43 28.8 153.43 25.92 152.88C16.41 140.97 10.52 127.23 8.25 111.65C7.24 104.34 5.93 97.12 4.32 89.99C3.39 74.32 2.74 58.63 2.36 42.93C2.14 33.41 3.32 24.11 5.89 15.03C10.93 7.57 17.87 3.96 26.7 4.2C26.7 3.37 26.7 2.53 26.7 1.7C32.64 1.93 38.4 1.37 43.98 0.04Z" fill="#E9AA61" fill-opacity="1.000000" fill-rule="evenodd"/>
	<path id="Vector" d="M92.67 9.2C71.73 8.11 50.79 8.11 29.84 9.2C40.02 7.9 50.36 7.35 60.87 7.53C71.63 7.36 82.23 7.91 92.67 9.2Z" fill="#D1AB7C" fill-opacity="1.000000" fill-rule="evenodd"/>
	<path id="Vector" d="M124.87 7.53C123.33 8.8 121.5 9.35 119.37 9.2C117.91 9.19 116.6 8.91 115.45 8.36C118.63 8.45 121.77 8.18 124.87 7.53Z" fill="#DAD4B9" fill-opacity="1.000000" fill-rule="evenodd"/>
	<path id="Vector" d="M92.67 9.2C93.79 9.99 95.09 10.27 96.6 10.03C100.06 11.62 103.72 12.73 107.59 13.36C108.91 14.62 110.48 15.45 112.31 15.86C114.27 18.13 114.27 20.49 112.31 22.94C113.2 24.11 114.25 25.08 115.45 25.86C115.53 26.37 115.8 26.79 116.23 27.11C118.85 27.38 121.47 27.66 124.08 27.94C125.37 28.88 126.16 30.13 126.44 31.69C126.6 33.73 126.34 35.67 125.66 37.52C124.84 38.71 124.32 40.1 124.08 41.68C122.51 44.06 120.42 45.86 117.8 47.1C114.34 47.85 110.94 48.82 107.59 50.01C105.36 50.05 103.53 50.89 102.1 52.51C101.22 52.56 100.44 52.83 99.74 53.34C95.42 53.98 91.23 54.82 87.17 55.84C80.58 57.75 73.78 58.86 66.76 59.17C64.39 59.04 62.03 59.17 59.69 59.59C58.97 59.82 58.45 60.24 58.12 60.84C56.22 62.01 54.91 63.68 54.19 65.84C53.21 67.4 52.29 69.07 51.44 70.83C51.06 71.91 50.93 73.02 51.05 74.16C50.05 76.17 49.53 78.39 49.48 80.83C49.2 83.66 48.68 86.44 47.91 89.16C46.7 91.1 46.18 93.33 46.34 95.82C46.07 99.48 45.54 103.09 44.77 106.65C43.66 108.91 43.13 111.41 43.2 114.15C42.78 124.5 39.38 133.53 32.99 141.21C29.72 143.17 26.84 142.75 24.35 139.97C22.76 136.6 21.19 133.27 19.64 129.97C18.96 128.37 18.43 126.7 18.06 124.97C17.92 122.18 17.13 119.68 15.71 117.48C14.68 113.65 13.89 109.76 13.35 105.82C13.33 101.74 12.8 97.86 11.78 94.15C11.78 93.6 11.78 93.04 11.78 92.49C11.94 88.12 11.41 83.95 10.21 80C9.61 72.52 9.35 65.02 9.43 57.51C9.21 45.84 8.95 34.18 8.64 22.52C9.44 20.8 10.22 19.13 11 17.53C12.1 17.13 12.62 16.3 12.57 15.03C13.45 13.67 14.5 12.42 15.71 11.28C20.57 10.85 25.28 10.16 29.84 9.2C50.79 8.11 71.73 8.11 92.67 9.2Z" fill="#C9EFFA" fill-opacity="1.000000" fill-rule="evenodd"/>
	<path id="Vector" d="M96.6 10.03C100.56 10.32 104.22 11.43 107.59 13.36C103.72 12.73 100.06 11.62 96.6 10.03Z" fill="#D1B690" fill-opacity="1.000000" fill-rule="evenodd"/>
	<path id="Vector" d="M4.71 12.53C4.77 13.8 4.25 14.63 3.14 15.03C3.09 13.76 3.61 12.92 4.71 12.53Z" fill="#D1B894" fill-opacity="1.000000" fill-rule="evenodd"/>
	<path id="Vector" d="M112.31 15.86C111.55 15.14 111.55 14.59 112.31 14.2C113.56 15.02 114.87 15.15 116.23 14.61C118.85 12.53 121.73 11 124.87 10.03C125.97 11.93 125.45 13.18 123.3 13.78C119.76 15.26 116.1 15.96 112.31 15.86Z" fill="#D89148" fill-opacity="1.000000" fill-rule="evenodd"/>
	<path id="Vector" d="M35.34 14.2C37.63 15.22 39.46 16.89 40.84 19.19C40.45 20.04 39.92 20.18 39.27 19.61C37.47 18.13 36.16 16.32 35.34 14.2Z" fill="#86999F" fill-opacity="1.000000" fill-rule="evenodd"/>
	<path id="Vector" d="M12.57 15.03C12.62 16.3 12.1 17.13 11 17.53C11 17.25 11 16.97 11 16.69C11.26 15.86 11.78 15.31 12.57 15.03Z" fill="#D0CBB6" fill-opacity="1.000000" fill-rule="evenodd"/>
	<path id="Vector" d="M62.04 12.53C62.83 12.53 63.61 12.53 64.4 12.53C63.19 20.16 62.4 20.16 62.04 12.53Z" fill="#6F7B7F" fill-opacity="1.000000" fill-rule="evenodd"/>
	<path id="Vector" d="M95.03 18.36C97.27 17.27 99.63 17.27 102.1 18.36C102 18.87 101.74 19.14 101.31 19.19C99.39 18.38 97.29 18.11 95.03 18.36Z" fill="#9EB8C1" fill-opacity="1.000000" fill-rule="evenodd"/>
	<path id="Vector" d="M146.86 20.03C148.44 21.21 150.27 21.77 152.36 21.69C153.04 21.58 153.57 21.86 153.93 22.52C152.71 23.32 151.41 23.59 150 23.36C146.28 21.61 142.36 20.5 138.22 20.03C138.27 18.17 139.18 17.34 140.97 17.53C142.87 18.46 144.84 19.3 146.86 20.03Z" fill="#D3D9CB" fill-opacity="1.000000" fill-rule="evenodd"/>
	<path id="Vector" d="M146.86 20.03C148.94 19.95 150.77 20.51 152.36 21.69C150.27 21.77 148.44 21.21 146.86 20.03Z" fill="#E1C599" fill-opacity="1.000000" fill-rule="evenodd"/>
	<path id="Vector" d="M95.03 18.36C97.29 18.11 99.39 18.38 101.31 19.19C98.52 19.82 95.64 20.51 92.67 21.28C85.28 21.45 77.95 22.14 70.68 23.36C70.68 22.52 70.68 21.69 70.68 20.86C78.96 20.53 87.07 19.69 95.03 18.36Z" fill="#748085" fill-opacity="1.000000" fill-rule="evenodd"/>
	<path id="Vector" d="M142.15 26.69C141.1 26.69 140.05 26.69 139.01 26.69C139.01 27.8 139.01 28.91 139.01 30.02C138.26 28.84 138 27.45 138.22 25.86C139.72 25.62 141.03 25.9 142.15 26.69Z" fill="#D0BA98" fill-opacity="1.000000" fill-rule="evenodd"/>
	<path id="Vector" d="M148.43 28.36C151.28 28.87 154.16 29.14 157.07 29.19C156.05 29.74 154.88 30.01 153.53 30.02C151.54 30.16 149.84 29.6 148.43 28.36Z" fill="#D1B996" fill-opacity="1.000000" fill-rule="evenodd"/>
	<path id="Vector" d="M23.56 1.7C24.61 1.7 25.66 1.7 26.7 1.7C26.7 2.53 26.7 3.37 26.7 4.2C17.87 3.96 10.93 7.57 5.89 15.03C3.32 24.11 2.14 33.41 2.36 42.93C2.74 58.63 3.39 74.32 4.32 89.99C5.93 97.12 7.24 104.34 8.25 111.65C10.52 127.23 16.41 140.97 25.92 152.88C28.8 153.43 31.68 153.43 34.56 152.88C36 151.9 37.17 150.65 38.09 149.13C39.79 145.7 41.5 142.37 43.2 139.13C44.8 129.56 46.89 120.12 49.48 110.81C50.93 102.4 52.76 94.07 54.98 85.83C55.63 85.54 55.9 84.99 55.76 84.16C56.9 79.31 58.6 74.59 60.87 70C61.97 68.93 63.15 67.96 64.4 67.09C74.85 65.79 85.32 64.68 95.81 63.75C109.01 60.75 121.32 55.48 132.72 47.93C139.43 41.24 139.95 34.02 134.29 26.27C132.22 25.86 130.12 25.72 128.01 25.86C128.21 27.94 128.47 30.02 128.8 32.1C128.53 33.07 128.27 34.05 128.01 35.02C127.48 33.81 126.96 32.7 126.44 31.69C126.16 30.13 125.37 28.88 124.08 27.94C121.47 27.66 118.85 27.38 116.23 27.11C115.79 26.79 115.53 26.37 115.45 25.86C119.32 24.33 123.25 22.53 127.23 20.44C130.88 20.03 134.55 19.89 138.22 20.03C142.36 20.5 146.28 21.61 150 23.36C150.66 24.75 151.71 25.72 153.14 26.27C155.39 26.42 157.49 26.84 159.42 27.52C159.05 28.69 158.27 29.25 157.07 29.19C154.16 29.14 151.28 28.87 148.43 28.35C148.17 28.35 147.91 28.35 147.64 28.35C146.39 27.04 144.82 26.49 142.93 26.69C142.67 26.69 142.41 26.69 142.15 26.69C141.03 25.9 139.72 25.62 138.22 25.86C138 27.45 138.26 28.84 139.01 30.02C139.6 34.15 139.86 38.32 139.79 42.51C137.17 46.96 133.77 50.57 129.58 53.34C128.38 53.28 127.6 53.84 127.23 55.01C124.2 56.2 121.32 57.59 118.59 59.17C116.65 59.38 115.08 60.22 113.88 61.67C111.99 61.47 110.42 62.03 109.16 63.34C107.76 63.23 106.45 63.5 105.24 64.17C101.48 65.01 97.82 65.84 94.24 66.67C83.9 68.01 73.43 69.26 62.83 70.42C59.92 80.1 57.57 89.96 55.76 99.99C54.64 101.66 54.12 103.61 54.19 105.82C54.19 106.37 54.19 106.93 54.19 107.48C53.07 109.16 52.55 111.1 52.62 113.31C52.61 115.03 52.34 116.7 51.83 118.31C51.02 119.5 50.5 120.89 50.26 122.47C49.15 124.15 48.62 126.1 48.69 128.3C48.21 129.05 47.95 129.88 47.91 130.8C46.79 132.48 46.27 134.42 46.34 136.63C44.94 139.8 43.89 143.13 43.2 146.63C42.09 147.02 41.57 147.86 41.62 149.13C35.5 158.56 28.3 159.67 20.03 152.46C16.72 145.44 13.45 138.5 10.21 131.64C10.19 128.79 9.4 126.29 7.86 124.14C7.96 122.65 7.7 121.26 7.07 119.98C7.26 117.98 6.74 116.31 5.5 114.98C5.5 114.42 5.5 113.87 5.5 113.31C5.3 110.36 4.78 107.59 3.93 104.98C3.62 102.06 3.09 99.28 2.36 96.65C1.99 90.25 1.47 83.87 0.79 77.5C-0.49 59.41 -0.22 41.36 1.57 23.36C1.43 20.34 1.96 17.56 3.14 15.03C4.25 14.63 4.77 13.8 4.71 12.53C6.81 7.95 10.22 5.17 14.92 4.2C17.4 3.79 19.76 3.24 21.99 2.53C22.52 2.26 23.04 1.98 23.56 1.7Z" fill="#D6924C" fill-opacity="1.000000" fill-rule="evenodd"/>
	<path id="Vector" d="M90.32 27.52C93.35 27.75 95.96 28.86 98.17 30.85C95.3 30.21 92.69 29.1 90.32 27.52Z" fill="#9DB7BF" fill-opacity="1.000000" fill-rule="evenodd"/>
	<path id="Vector" d="M142.93 26.69C144.82 26.49 146.39 27.04 147.64 28.35C145.76 28.56 144.19 28 142.93 26.69Z" fill="#D2B289" fill-opacity="1.000000" fill-rule="evenodd"/>
	<path id="Vector" d="M12.57 26.69C15.2 27.62 17.82 28.73 20.42 30.02C17.89 31.07 15.53 30.65 13.35 28.77C12.76 28.21 12.5 27.52 12.57 26.69Z" fill="#7D8D93" fill-opacity="1.000000" fill-rule="evenodd"/>
	<path id="Vector" d="M55.76 84.16C56.16 81.75 55.64 79.81 54.19 78.33C53.91 74.18 54.44 70.15 55.76 66.25C55.62 64.85 55.09 64.71 54.19 65.84C54.91 63.68 56.22 62.01 58.12 60.84C61.15 60.58 64.03 60.03 66.76 59.17C73.78 58.86 80.58 57.75 87.17 55.84C91.7 56.31 95.88 55.48 99.74 53.34C100.44 52.83 101.22 52.56 102.1 52.51C104.18 52.15 106.02 51.31 107.59 50.01C110.94 48.82 114.34 47.85 117.8 47.1C120.42 45.86 122.51 44.06 124.08 41.68C125.43 40.74 125.95 39.35 125.66 37.52C126.34 35.67 126.6 33.73 126.44 31.69C126.96 32.7 127.48 33.81 128.01 35.02C128.27 34.05 128.53 33.08 128.8 32.1C128.47 30.02 128.21 27.94 128.01 25.86C130.12 25.72 132.22 25.86 134.29 26.27C139.95 34.02 139.43 41.24 132.72 47.93C121.32 55.48 109.01 60.75 95.81 63.75C85.32 64.68 74.85 65.79 64.4 67.09C63.15 67.96 61.97 68.93 60.87 70C58.6 74.59 56.9 79.31 55.76 84.16Z" fill="#ECAE65" fill-opacity="1.000000" fill-rule="evenodd"/>
	<path id="Vector" d="M49.48 25.86C51.39 27 53.49 27.83 55.76 28.35C57.42 29.1 58.99 30.07 60.47 31.27C63.79 31.33 66.93 32.03 69.9 33.35C71.18 34.48 72.22 34.2 73.04 32.52C75.76 32.21 78.12 33.04 80.11 35.02C80.63 34.19 81.15 33.35 81.68 32.52C84.16 33.27 85.99 34.79 87.17 37.1C86.61 38.38 85.83 39.49 84.82 40.43C85.58 42.07 86.62 43.46 87.96 44.6C87.7 45.01 87.44 45.43 87.17 45.85C83.52 42.33 79.33 41.5 74.61 43.35C74.52 41.69 75.04 40.31 76.18 39.18C75.79 38.91 75.39 38.63 75 38.35C72.66 40.65 69.92 41.35 66.76 40.43C64.23 37.53 61.09 35.87 57.33 35.43C55.23 34.74 53.4 35.16 51.83 36.68C49.9 36.9 48.33 37.73 47.12 39.18C44.54 39.54 42.19 40.37 40.05 41.68C38.74 42.38 37.82 43.49 37.31 45.01C36.65 49.74 35.99 54.46 35.34 59.17C34.86 63.29 32.76 65.79 29.06 66.67C29.09 69.2 29.88 71.42 31.42 73.33C31.66 75.62 31.4 77.84 30.63 80C29.52 80.42 28.99 81.25 29.06 82.49C28.4 82.78 28.14 83.33 28.27 84.16C27.53 82.98 27.27 81.59 27.49 80C29.48 77.98 29.48 76.04 27.49 74.16C27.62 69.16 27.49 64.16 27.1 59.17C26.94 57.61 26.55 56.22 25.92 55.01C25.19 48.95 24.93 42.84 25.13 36.68C26.7 36.68 28.27 36.68 29.84 36.68C30.31 34.09 31.62 32.01 33.77 30.44C36.95 30.29 40.09 29.88 43.2 29.19C42.84 28.52 42.31 28.25 41.62 28.35C40.67 27.8 39.62 27.25 38.48 26.69C42.11 25.86 45.78 25.58 49.48 25.86Z" fill="#626A6D" fill-opacity="1.000000" fill-rule="evenodd"/>
	<path id="Vector" d="M48.69 29.19C54.37 30.49 54.76 32.71 49.87 35.85C49.48 35.57 49.09 35.3 48.69 35.02C49.61 33.08 49.61 31.14 48.69 29.19Z" fill="#B6D8E2" fill-opacity="1.000000" fill-rule="evenodd"/>
	<path id="Vector" d="M49.48 25.86C52 25.73 54.1 26.56 55.76 28.35C53.49 27.83 51.39 27 49.48 25.86Z" fill="#9EB8C1" fill-opacity="1.000000" fill-rule="evenodd"/>
	<path id="Vector" d="M49.48 25.86C45.78 25.58 42.11 25.86 38.48 26.69C39.62 27.25 40.67 27.8 41.62 28.36C40.32 28.36 39.01 28.36 37.7 28.36C37.7 27.24 37.7 26.13 37.7 25.02C41.78 24.76 45.7 25.03 49.48 25.86Z" fill="#A2BDC6" fill-opacity="1.000000" fill-rule="evenodd"/>
	<path id="Vector" d="M73.04 32.52C72.22 34.2 71.18 34.48 69.9 33.35C70.94 33.08 71.99 32.8 73.04 32.52Z" fill="#91A8AF" fill-opacity="1.000000" fill-rule="evenodd"/>
	<path id="Vector" d="M90.32 27.52C92.69 29.1 95.3 30.21 98.17 30.85C102.42 33.05 106.87 34.86 111.52 36.27C111.78 36.54 112.04 36.82 112.31 37.1C111.65 37.24 111 37.38 110.34 37.52C102.56 35.7 95.1 33.06 87.96 29.6C84.29 29.33 80.63 29.05 76.96 28.77C76.7 28.49 76.44 28.22 76.18 27.94C80.88 27.52 85.6 27.38 90.32 27.52Z" fill="#6B7579" fill-opacity="1.000000" fill-rule="evenodd"/>
	<path id="Vector" d="M33.77 33.35C34.56 33.35 35.34 33.35 36.13 33.35C35.78 35.95 34.47 37.9 32.2 39.18C31.33 38.16 31.19 37.05 31.81 35.85C32.63 35.12 33.28 34.29 33.77 33.35Z" fill="#B5D6E0" fill-opacity="1.000000" fill-rule="evenodd"/>
	<path id="Vector" d="M7.86 30.85C8.03 39.89 8.55 48.77 9.43 57.51C9.35 65.02 9.61 72.52 10.21 80C10.17 84.35 10.69 88.52 11.78 92.49C11.78 93.04 11.78 93.6 11.78 94.15C11.67 98.25 12.2 102.14 13.35 105.82C13.89 109.76 14.68 113.65 15.71 117.48C15.73 120.32 16.52 122.82 18.06 124.97C18.43 126.7 18.96 128.37 19.64 129.97C19.76 131.11 19.63 132.23 19.24 133.3C16.63 127.19 14.01 121.09 11.39 114.98C7.13 95.81 5.42 76.38 6.28 56.67C6.29 47.77 6.81 39.16 7.86 30.85Z" fill="#D48E47" fill-opacity="1.000000" fill-rule="evenodd"/>
	<path id="Vector" d="M51.83 36.68C50.63 38.14 49.06 38.97 47.12 39.18C48.33 37.73 49.9 36.9 51.83 36.68Z" fill="#9EB8C0" fill-opacity="1.000000" fill-rule="evenodd"/>
	<path id="Vector" d="M133.51 42.51C133.64 40.83 133.5 39.16 133.12 37.52C132.82 37.98 132.42 38.26 131.94 38.35C132.19 37.06 132.98 36.5 134.29 36.68C134.53 38.82 134.27 40.76 133.51 42.51Z" fill="#E3C292" fill-opacity="1.000000" fill-rule="evenodd"/>
	<path id="Vector" d="M43.98 32.52C45.8 33.09 46.06 34.2 44.77 35.85C41.14 37.15 38.13 39.37 35.73 42.51C35.01 40.18 35.67 38.37 37.7 37.1C39.27 36.55 40.84 35.99 42.41 35.43C43.45 34.75 43.97 33.78 43.98 32.52Z" fill="#ACCBD4" fill-opacity="1.000000" fill-rule="evenodd"/>
	<path id="Vector" d="M125.66 37.52C125.95 39.35 125.43 40.74 124.08 41.68C124.32 40.1 124.84 38.71 125.66 37.52Z" fill="#E1C89E" fill-opacity="1.000000" fill-rule="evenodd"/>
	<path id="Vector" d="M28.27 40.02C28.32 39.56 28.58 39.29 29.06 39.18C29.84 43.87 30.1 48.59 29.84 53.34C29.32 48.9 28.8 44.46 28.27 40.02Z" fill="#7C8B91" fill-opacity="1.000000" fill-rule="evenodd"/>
	<path id="Vector" d="M133.51 42.51C131.93 45.43 129.71 47.65 126.83 49.18C126.31 48.34 126.31 47.51 126.83 46.68C129.14 44.28 130.84 41.5 131.94 38.35C132.42 38.26 132.82 37.98 133.12 37.52C133.5 39.16 133.64 40.83 133.51 42.51Z" fill="#D4E3DC" fill-opacity="1.000000" fill-rule="evenodd"/>
	<path id="Vector" d="M60.47 43.35C63.84 45.25 66.46 48.03 68.33 51.68C67.65 52.58 66.86 52.72 65.97 52.09C63.83 49.35 62 46.43 60.47 43.35Z" fill="#6C777B" fill-opacity="1.000000" fill-rule="evenodd"/>
	<path id="Vector" d="M40.05 41.68C38.23 47.5 36.66 53.33 35.34 59.17C35.99 54.46 36.65 49.74 37.31 45.01C37.82 43.49 38.74 42.38 40.05 41.68Z" fill="#96AEB5" fill-opacity="1.000000" fill-rule="evenodd"/>
	<path id="Vector" d="M107.59 50.01C106.02 51.31 104.18 52.15 102.1 52.51C103.53 50.89 105.36 50.05 107.59 50.01Z" fill="#DECDAA" fill-opacity="1.000000" fill-rule="evenodd"/>
	<path id="Vector" d="M8.64 22.52C8.95 34.18 9.21 45.84 9.43 57.51C8.55 48.77 8.03 39.89 7.86 30.85C7.61 27.9 7.87 25.13 8.64 22.52Z" fill="#D2C4A7" fill-opacity="1.000000" fill-rule="evenodd"/>
	<path id="Vector" d="M99.74 53.34C95.88 55.48 91.7 56.31 87.17 55.84C91.23 54.82 95.42 53.98 99.74 53.34Z" fill="#D9D7C1" fill-opacity="1.000000" fill-rule="evenodd"/>
	<path id="Vector" d="M28.27 40.02C28.8 44.46 29.32 48.9 29.84 53.34C29.62 54.83 29.88 56.22 30.63 57.51C31.5 54.48 32.28 51.42 32.99 48.34C34.46 53.27 33.68 57.71 30.63 61.67C29.5 59.55 28.59 57.33 27.88 55.01C27.24 49.86 27.37 44.86 28.27 40.02Z" fill="#ADCCD5" fill-opacity="1.000000" fill-rule="evenodd"/>
	<path id="Vector" d="M15.71 58.34C19.46 58.48 19.72 59.32 16.49 60.84C14.69 60.53 14.42 59.69 15.71 58.34Z" fill="#78868B" fill-opacity="1.000000" fill-rule="evenodd"/>
	<path id="Vector" d="M66.76 59.17C64.03 60.03 61.15 60.58 58.12 60.84C58.45 60.24 58.97 59.82 59.69 59.59C62.03 59.17 64.39 59.03 66.76 59.17Z" fill="#E0CBA6" fill-opacity="1.000000" fill-rule="evenodd"/>
	<path id="Vector" d="M41.62 60.84C43.41 61.05 44.33 62.16 44.37 64.17C45.4 67.88 46.32 71.63 47.12 75.41C46.86 75.83 46.6 76.25 46.34 76.66C44.45 71.49 42.88 66.21 41.62 60.84Z" fill="#83949B" fill-opacity="1.000000" fill-rule="evenodd"/>
	<path id="Vector" d="M25.92 55.01C26.55 56.22 26.94 57.61 27.1 59.17C27.49 64.16 27.62 69.16 27.49 74.17C26.69 67.93 26.17 61.54 25.92 55.01Z" fill="#93AAB2" fill-opacity="1.000000" fill-rule="evenodd"/>
	<path id="Vector" d="M54.19 78.33C53.71 79.07 53.45 79.9 53.4 80.83C52.01 83.33 51.22 86.11 51.05 89.16C51.15 91.71 50.89 94.21 50.26 96.65C49.01 99.77 48.22 103.1 47.91 106.65C47.91 108.04 47.91 109.43 47.91 110.81C45.61 117.77 43.78 124.99 42.41 132.47C39.57 137.07 36.17 141.24 32.2 144.96C27.54 146.71 24.4 145.05 22.78 139.97C23.15 139.16 23.67 139.16 24.35 139.97C26.84 142.75 29.72 143.17 32.99 141.21C39.38 133.53 42.78 124.5 43.2 114.15C44.31 111.88 44.83 109.38 44.77 106.65C45.54 103.09 46.07 99.48 46.34 95.82C47.55 93.87 48.07 91.65 47.91 89.16C48.68 86.44 49.2 83.66 49.48 80.83C50.69 78.88 51.21 76.66 51.05 74.17C50.93 73.02 51.06 71.91 51.44 70.83C52.29 69.07 53.21 67.4 54.19 65.84C55.09 64.71 55.62 64.85 55.76 66.25C54.44 70.15 53.91 74.18 54.19 78.33Z" fill="#D4924F" fill-opacity="1.000000" fill-rule="evenodd"/>
	<path id="Vector" d="M54.19 78.33C55.64 79.81 56.16 81.75 55.76 84.16C55.9 84.99 55.63 85.54 54.98 85.83C55.1 83.86 54.97 81.92 54.58 80C54.28 80.46 53.89 80.74 53.4 80.83C53.45 79.9 53.71 79.07 54.19 78.33Z" fill="#D6D4BF" fill-opacity="1.000000" fill-rule="evenodd"/>
	<path id="Vector" d="M51.05 74.16C51.21 76.66 50.69 78.88 49.48 80.83C49.53 78.39 50.05 76.17 51.05 74.16Z" fill="#D0C3A8" fill-opacity="1.000000" fill-rule="evenodd"/>
	<path id="Vector" d="M31.42 73.33C32.15 75.96 32.67 78.74 32.99 81.66C32.28 82.25 32.01 83.08 32.2 84.16C31.68 83.41 31.16 82.58 30.63 81.66C30.09 81.96 29.57 82.24 29.06 82.49C28.99 81.25 29.52 80.42 30.63 80C31.4 77.84 31.66 75.62 31.42 73.33Z" fill="#99B2BA" fill-opacity="1.000000" fill-rule="evenodd"/>
	<path id="Vector" d="M53.4 80.83C53.23 83.88 52.44 86.65 51.05 89.16C51.22 86.11 52.01 83.33 53.4 80.83Z" fill="#D1C0A3" fill-opacity="1.000000" fill-rule="evenodd"/>
	<path id="Vector" d="M27.49 80C27.27 81.59 27.53 82.98 28.27 84.16C28.27 84.99 28.27 85.83 28.27 86.66C27.57 86.15 26.79 85.87 25.92 85.83C26.36 83.78 26.89 81.84 27.49 80Z" fill="#9CB5BE" fill-opacity="1.000000" fill-rule="evenodd"/>
	<path id="Vector" d="M20.42 83.33C21.11 83.22 21.63 83.5 21.99 84.16C20.08 87.39 17.99 90.45 15.71 93.32C14.86 92.6 14.73 91.77 15.32 90.82C17.19 88.43 18.89 85.93 20.42 83.33Z" fill="#7A888E" fill-opacity="1.000000" fill-rule="evenodd"/>
	<path id="Vector" d="M10.21 80C11.41 83.95 11.94 88.12 11.78 92.49C10.69 88.52 10.17 84.35 10.21 80Z" fill="#D0BD9E" fill-opacity="1.000000" fill-rule="evenodd"/>
	<path id="Vector" d="M47.91 89.16C48.07 91.65 47.55 93.87 46.34 95.82C46.17 93.33 46.7 91.1 47.91 89.16Z" fill="#D0C3A8" fill-opacity="1.000000" fill-rule="evenodd"/>
	<path id="Vector" d="M32.99 81.66C34.44 87.1 36.01 92.52 37.7 97.9C37.44 98.6 37.17 99.29 36.91 99.99C34.95 94.82 33.38 89.55 32.2 84.16C32.01 83.08 32.28 82.25 32.99 81.66Z" fill="#7F9096" fill-opacity="1.000000" fill-rule="evenodd"/>
	<path id="Vector" d="M25.92 85.83C26.79 85.87 27.57 86.15 28.27 86.66C29.69 88.28 30.48 90.23 30.63 92.49C29.32 95.26 28.01 98.04 26.7 100.82C26.97 101.65 27.23 102.48 27.49 103.32C28.27 102.76 29.06 102.21 29.84 101.65C30.11 102.21 30.37 102.76 30.63 103.32C28.47 105.95 27.43 109 27.49 112.48C26.97 117.2 26.44 121.92 25.92 126.64C26.05 120.8 25.92 114.97 25.53 109.15C25.31 108.38 24.91 107.83 24.35 107.48C23.98 105.6 23.2 103.94 21.99 102.48C22.64 101.75 23.42 101.47 24.35 101.65C24.22 99.96 24.35 98.3 24.74 96.65C26.4 95.32 27.58 93.65 28.27 91.66C27.11 89.87 26.33 87.93 25.92 85.83Z" fill="#687175" fill-opacity="1.000000" fill-rule="evenodd"/>
	<path id="Vector" d="M11.78 94.15C12.8 97.86 13.33 101.74 13.35 105.82C12.2 102.14 11.67 98.25 11.78 94.15Z" fill="#D0BD9D" fill-opacity="1.000000" fill-rule="evenodd"/>
	<path id="Vector" d="M50.26 96.65C50.2 100.27 49.41 103.6 47.91 106.65C48.22 103.1 49.01 99.77 50.26 96.65Z" fill="#D0C0A3" fill-opacity="1.000000" fill-rule="evenodd"/>
	<path id="Vector" d="M54.98 85.83C52.76 94.07 50.93 102.4 49.48 110.81C48.91 111.16 48.52 111.72 48.3 112.48C47.94 111.98 47.8 111.43 47.91 110.81C47.91 109.42 47.91 108.04 47.91 106.65C49.41 103.6 50.2 100.27 50.26 96.65C50.89 94.21 51.15 91.71 51.05 89.16C52.44 86.65 53.23 83.88 53.4 80.83C53.89 80.74 54.28 80.46 54.58 80C54.97 81.92 55.1 83.86 54.98 85.83Z" fill="#CDE3E2" fill-opacity="1.000000" fill-rule="evenodd"/>
	<path id="Vector" d="M55.76 99.99C55.83 102.19 55.31 104.14 54.19 105.82C54.12 103.61 54.64 101.66 55.76 99.99Z" fill="#D0B995" fill-opacity="1.000000" fill-rule="evenodd"/>
	<path id="Vector" d="M24.35 107.48C24.91 107.83 25.31 108.38 25.53 109.15C25.92 114.97 26.05 120.8 25.92 126.64C25.29 120.38 24.76 114 24.35 107.48Z" fill="#A5C3CB" fill-opacity="1.000000" fill-rule="evenodd"/>
	<path id="Vector" d="M44.77 106.65C44.83 109.38 44.31 111.88 43.2 114.15C43.13 111.41 43.66 108.91 44.77 106.65Z" fill="#CFC5AC" fill-opacity="1.000000" fill-rule="evenodd"/>
	<path id="Vector" d="M54.19 107.48C54.26 109.69 53.74 111.63 52.62 113.31C52.55 111.1 53.07 109.16 54.19 107.48Z" fill="#D0BD9D" fill-opacity="1.000000" fill-rule="evenodd"/>
	<path id="Vector" d="M27.49 112.48C27.75 117.51 27.49 122.51 26.7 127.47C26.23 127.37 25.97 127.09 25.92 126.64C26.44 121.92 26.97 117.2 27.49 112.48Z" fill="#83959B" fill-opacity="1.000000" fill-rule="evenodd"/>
	<path id="Vector" d="M47.91 110.81C47.8 111.43 47.94 111.98 48.3 112.48C48.52 111.72 48.91 111.16 49.48 110.81C46.89 120.12 44.8 129.56 43.2 139.13C42.26 138.74 41.73 137.91 41.62 136.63C41.8 135.21 42.07 133.82 42.41 132.47C43.78 124.99 45.61 117.77 47.91 110.81Z" fill="#D1D0BE" fill-opacity="1.000000" fill-rule="evenodd"/>
	<path id="Vector" d="M15.71 117.48C17.13 119.68 17.92 122.18 18.06 124.97C16.52 122.82 15.73 120.32 15.71 117.48Z" fill="#D2AB7D" fill-opacity="1.000000" fill-rule="evenodd"/>
	<path id="Vector" d="M50.26 122.47C50.26 123.03 50.26 123.58 50.26 124.14C50.03 125.72 49.51 127.11 48.69 128.3C48.62 126.1 49.15 124.15 50.26 122.47Z" fill="#D1BD9E" fill-opacity="1.000000" fill-rule="evenodd"/>
	<path id="Vector" d="M47.91 130.8C47.98 133.01 47.46 134.96 46.34 136.63C46.27 134.42 46.79 132.48 47.91 130.8Z" fill="#D1BC9C" fill-opacity="1.000000" fill-rule="evenodd"/>
	<path id="Vector" d="M43.2 146.63C43.25 147.9 42.73 148.73 41.62 149.13C41.57 147.86 42.09 147.02 43.2 146.63Z" fill="#CFC8B0" fill-opacity="1.000000" fill-rule="evenodd"/>
</svg>
