<svg width="161.000000" height="259.000122" viewBox="0 0 161 259" fill="none" xmlns="http://www.w3.org/2000/svg" xmlns:xlink="http://www.w3.org/1999/xlink">
	<desc>
			Created with Pixso.
	</desc>
	<defs/>
	<path id="Vector" d="M89.23 1.69C88.7 1.73 88.17 1.76 87.63 1.8C86.03 1.91 84.43 2.02 82.82 2.14C82.83 2.58 82.84 3.03 82.85 3.48C84.64 2.96 86.25 3.29 87.69 4.49C92.5 4.15 97.3 3.81 102.11 3.48C97.82 2.88 93.53 2.28 89.23 1.69Z" fill="#E2C496" fill-opacity="1.000000" fill-rule="evenodd"/>
	<path id="Vector" d="M139 4.18C141.23 5.34 143.59 6.25 146.07 6.93C145.98 6.08 145.72 5.39 145.28 4.87C143.2 4.18 141.11 3.96 139 4.18Z" fill="#D2A776" fill-opacity="1.000000" fill-rule="evenodd"/>
	<path id="Vector" d="M102.09 4.18C97.38 4.18 92.66 4.18 87.95 4.18C87.95 6.01 88.48 6.93 89.52 6.93C94.12 7.37 98.57 6.91 102.87 5.55C102.87 4.64 102.61 4.18 102.09 4.18Z" fill="#CDEDF3" fill-opacity="1.000000" fill-rule="evenodd"/>
	<path id="Vector" d="M32.98 6.93C31.43 6.02 29.73 5.56 27.87 5.55C25.14 5.32 22.66 6.23 20.41 8.3C24.31 7.26 28.24 6.81 32.19 6.93C32.46 6.93 32.72 6.93 32.98 6.93Z" fill="#D0CAB3" fill-opacity="1.000000" fill-rule="evenodd"/>
	<path id="Vector" d="M102.87 5.55C98.57 6.91 94.12 7.37 89.52 6.93C89.52 7.38 89.52 7.84 89.52 8.3C96.6 8.53 103.66 8.3 110.73 7.61C108.28 5.68 105.66 5 102.87 5.55Z" fill="#D2D7C8" fill-opacity="1.000000" fill-rule="evenodd"/>
	<path id="Vector" d="M83.24 2.81C78.52 3.59 73.81 4.51 69.1 5.55C64.8 7.34 60.35 8.72 55.75 9.67C52.45 11.68 49.05 13.06 45.54 13.79C44.39 14.7 43.09 15.15 41.62 15.16C39.49 15.41 37.66 14.5 36.12 12.42C34.34 11.79 33.29 9.96 32.98 6.93C32.72 6.93 32.46 6.93 32.19 6.93C29.52 8.88 26.64 10.03 23.55 10.36C16.59 17.58 10.05 25.82 3.92 35.07C3.14 35.75 2.35 36.44 1.57 37.13C0.94 36.5 0.68 35.58 0.78 34.38C0.27 35.92 0 37.75 0 39.87C0.06 42.39 0.59 44.22 1.57 45.36C3.5 44.24 5.6 43.55 7.85 43.3C9.28 42.4 10.33 40.79 10.99 38.5C9.59 38.89 8.28 38.43 7.06 37.13C7.42 36.03 7.95 35.57 8.63 35.75C10.22 33.8 12.05 32.88 14.13 33.01C16.15 31.81 18.12 30.43 20.02 28.89C21.81 28.58 22.72 29.96 22.77 33.01C26.44 32.78 30.11 33.01 33.76 33.69C37.74 37.13 41.67 40.11 45.54 42.62C46.74 41.34 47.79 39.74 48.69 37.81C46.72 33.77 46.72 29.88 48.69 26.14C50.51 25.47 52.08 24.1 53.4 22.03C52.57 22.23 51.79 22 51.04 21.34C53.31 18.88 55.67 16.82 58.11 15.16C58.2 14.31 58.46 13.63 58.89 13.1C61.97 11.3 65.11 9.93 68.32 8.98C75.38 8.3 82.45 8.07 89.52 8.3C89.52 7.84 89.52 7.38 89.52 6.93C88.48 6.93 87.95 6.01 87.95 4.18C86.57 2.86 85 2.4 83.24 2.81Z" fill="#EBAD65" fill-opacity="1.000000" fill-rule="evenodd"/>
	<path id="Vector" d="M58.11 15.16C55.67 16.82 53.31 18.88 51.04 21.34C51.79 22 52.57 22.23 53.4 22.03C56.77 18.85 60.43 17.02 64.39 16.53C65.9 16.92 67.2 16.47 68.32 15.16C78.76 13.04 89.36 12.13 100.13 12.42C110.63 12.11 120.97 13.03 131.14 15.16C135.71 16.74 140.42 17.88 145.28 18.59C146.49 20.48 147.54 22.54 148.42 24.77C149.21 25.23 149.73 26.14 149.99 27.52C150.84 26.49 150.97 25.11 150.39 23.4C148.68 20.42 146.98 17.45 145.28 14.48C142.99 13.12 140.63 12.21 138.21 11.73C115.45 9.81 92.67 9.35 69.89 10.36C65.86 11.32 61.93 12.92 58.11 15.16Z" fill="#D58F48" fill-opacity="1.000000" fill-rule="evenodd"/>
	<path id="Vector" d="M32.19 6.93C28.24 6.81 24.31 7.26 20.41 8.3C13.22 15.37 6.67 24.06 0.78 34.38C0.68 35.58 0.94 36.5 1.57 37.13C2.35 36.44 3.14 35.75 3.92 35.07C10.05 25.82 16.59 17.59 23.55 10.36C26.64 10.03 29.52 8.88 32.19 6.93Z" fill="#D6924B" fill-opacity="1.000000" fill-rule="evenodd"/>
	<path id="Vector" d="M117.01 0.06C116.49 0.06 115.96 0.06 115.44 0.06C106.78 -0.19 98.14 0.27 89.52 1.44C93.71 2.35 97.9 3.26 102.09 4.18C102.61 4.18 102.87 4.64 102.87 5.55C105.66 5 108.28 5.68 110.73 7.61C103.66 8.3 96.6 8.53 89.52 8.3C82.45 8.07 75.38 8.3 68.32 8.98C65.11 9.93 61.97 11.3 58.89 13.1C58.46 13.63 58.2 14.32 58.11 15.16C61.93 12.92 65.86 11.32 69.89 10.36C92.67 9.35 115.45 9.81 138.21 11.73C140.63 12.21 142.99 13.12 145.28 14.48C146.98 17.45 148.68 20.42 150.39 23.4C150.97 25.11 150.84 26.49 149.99 27.52C149.99 27.97 149.99 28.43 149.99 28.89C150.77 31.53 151.55 34.28 152.35 37.13C153.12 41.42 153.38 45.99 153.13 50.85C154.18 64.55 154.7 78.73 154.71 93.41C155.57 125.88 153.87 157.91 149.6 189.5C146.98 199.56 144.37 209.63 141.75 219.7C141.36 217.92 141.23 216.09 141.35 214.2C139.8 219.64 138.23 225.13 136.64 230.68C137.32 229.35 137.84 229.35 138.21 230.68C136.59 239.05 133.45 241.8 128.79 238.91C124.82 232.78 121.42 225.91 118.58 218.32C118.92 220.55 119.19 222.84 119.37 225.19C119.26 227.29 118.73 228.66 117.79 229.3C119.49 234.63 121.2 240.12 122.9 245.78C123.82 248.29 124.99 250.35 126.43 251.95C129.31 252.87 132.19 252.87 135.07 251.95C144.58 232.34 150.47 209.69 152.74 184.01C153.75 171.97 155.06 160.07 156.67 148.31C157.6 122.48 158.25 96.63 158.63 70.76C158.85 55.07 157.67 39.74 155.1 24.77C150.06 12.47 143.12 6.52 134.29 6.93C134.29 5.55 134.29 4.18 134.29 2.81C128.35 3.18 122.59 2.27 117.01 0.06Z" fill="#E9AA61" fill-opacity="1.000000" fill-rule="evenodd"/>
	<path id="Vector" d="M68.32 15.16C89.26 13.36 110.2 13.36 131.14 15.16C120.97 13.03 110.63 12.11 100.13 12.42C89.36 12.13 78.76 13.04 68.32 15.16Z" fill="#D1AB7C" fill-opacity="1.000000" fill-rule="evenodd"/>
	<path id="Vector" d="M36.12 12.42C37.66 14.5 39.49 15.41 41.62 15.16C43.09 15.15 44.39 14.7 45.54 13.79C42.37 13.93 39.22 13.48 36.12 12.42Z" fill="#DAD4B9" fill-opacity="1.000000" fill-rule="evenodd"/>
	<path id="Vector" d="M68.32 15.16C67.2 16.47 65.9 16.92 64.39 16.54C60.93 19.15 57.27 20.98 53.4 22.03C52.08 24.1 50.51 25.47 48.69 26.14C46.72 29.88 46.72 33.77 48.69 37.81C47.79 39.74 46.74 41.34 45.54 42.62C45.46 43.46 45.2 44.15 44.76 44.68C42.14 45.13 39.52 45.59 36.91 46.05C35.62 47.6 34.83 49.66 34.55 52.23C34.39 55.59 34.65 58.79 35.33 61.83C36.15 63.8 36.67 66.09 36.91 68.7C38.48 72.62 40.57 75.59 43.19 77.62C46.65 78.87 50.05 80.47 53.4 82.42C55.63 82.5 57.47 83.87 58.89 86.54C59.77 86.62 60.55 87.08 61.25 87.92C65.57 88.97 69.76 90.34 73.82 92.03C80.41 95.19 87.21 97.02 94.23 97.52C96.6 97.3 98.96 97.53 101.3 98.21C102.02 98.59 102.55 99.28 102.87 100.27C104.77 102.21 106.08 104.95 106.8 108.51C107.78 111.09 108.7 113.84 109.55 116.74C109.93 118.52 110.07 120.35 109.94 122.23C110.94 125.53 111.46 129.2 111.51 133.22C111.79 137.89 112.31 142.46 113.08 146.94C114.29 150.15 114.82 153.81 114.65 157.92C114.92 163.96 115.45 169.9 116.22 175.77C117.33 179.5 117.86 183.62 117.8 188.12C118.21 205.19 121.61 220.06 128 232.74C131.27 235.96 134.15 235.27 136.64 230.68C138.23 225.13 139.8 219.64 141.35 214.2C142.03 211.57 142.56 208.82 142.92 205.97C143.07 201.36 143.86 197.24 145.28 193.61C146.31 187.31 147.1 180.9 147.64 174.4C147.66 167.68 148.19 161.28 149.21 155.18C149.21 154.26 149.21 153.35 149.21 152.43C149.05 145.23 149.58 138.36 150.78 131.84C151.38 119.52 151.64 107.16 151.56 94.78C151.78 75.56 152.04 56.34 152.35 37.13C151.55 34.28 150.77 31.53 149.99 28.89C148.89 28.24 148.37 26.87 148.42 24.77C147.54 22.54 146.49 20.48 145.28 18.59C140.42 17.88 135.71 16.74 131.14 15.16C110.2 13.36 89.26 13.36 68.32 15.16Z" fill="#C9EFFA" fill-opacity="1.000000" fill-rule="evenodd"/>
	<path id="Vector" d="M64.39 16.53C60.43 17.02 56.77 18.85 53.4 22.03C57.27 20.98 60.93 19.15 64.39 16.53Z" fill="#D1B690" fill-opacity="1.000000" fill-rule="evenodd"/>
	<path id="Vector" d="M156.28 20.65C156.22 22.75 156.74 24.12 157.85 24.77C157.9 22.67 157.38 21.3 156.28 20.65Z" fill="#D1B894" fill-opacity="1.000000" fill-rule="evenodd"/>
	<path id="Vector" d="M48.69 26.14C49.44 24.96 49.44 24.04 48.69 23.4C47.43 24.75 46.12 24.98 44.76 24.08C42.14 20.65 39.26 18.14 36.12 16.53C35.02 19.67 35.54 21.73 37.69 22.71C41.23 25.16 44.89 26.3 48.69 26.14Z" fill="#D89148" fill-opacity="1.000000" fill-rule="evenodd"/>
	<path id="Vector" d="M125.65 23.4C123.37 25.09 121.53 27.84 120.15 31.63C120.55 33.04 121.07 33.27 121.72 32.32C123.52 29.88 124.83 26.91 125.65 23.4Z" fill="#86999F" fill-opacity="1.000000" fill-rule="evenodd"/>
	<path id="Vector" d="M148.42 24.77C148.37 26.87 148.89 28.24 149.99 28.89C149.99 28.43 149.99 27.97 149.99 27.52C149.73 26.14 149.21 25.23 148.42 24.77Z" fill="#D0CBB6" fill-opacity="1.000000" fill-rule="evenodd"/>
	<path id="Vector" d="M98.95 20.65C98.16 20.65 97.38 20.65 96.59 20.65C97.8 33.23 98.59 33.23 98.95 20.65Z" fill="#6F7B7F" fill-opacity="1.000000" fill-rule="evenodd"/>
	<path id="Vector" d="M65.96 30.26C63.72 28.47 61.36 28.47 58.89 30.26C58.99 31.1 59.25 31.55 59.68 31.63C61.6 30.3 63.7 29.84 65.96 30.26Z" fill="#9EB8C1" fill-opacity="1.000000" fill-rule="evenodd"/>
	<path id="Vector" d="M14.13 33.01C12.55 34.96 10.72 35.88 8.63 35.75C7.95 35.57 7.42 36.03 7.06 37.13C8.28 38.43 9.59 38.89 10.99 38.5C14.71 35.61 18.63 33.78 22.77 33.01C22.72 29.96 21.81 28.58 20.02 28.89C18.12 30.43 16.15 31.81 14.13 33.01Z" fill="#D3D9CB" fill-opacity="1.000000" fill-rule="evenodd"/>
	<path id="Vector" d="M14.13 33.01C12.05 32.88 10.22 33.8 8.63 35.75C10.72 35.88 12.55 34.96 14.13 33.01Z" fill="#E1C599" fill-opacity="1.000000" fill-rule="evenodd"/>
	<path id="Vector" d="M65.96 30.26C63.7 29.84 61.6 30.3 59.68 31.63C62.47 32.66 65.35 33.81 68.32 35.07C75.71 35.35 83.04 36.5 90.31 38.5C90.31 37.13 90.31 35.75 90.31 34.38C82.03 33.83 73.92 32.46 65.96 30.26Z" fill="#748085" fill-opacity="1.000000" fill-rule="evenodd"/>
	<path id="Vector" d="M18.84 43.99C19.89 43.99 20.94 43.99 21.98 43.99C21.98 45.82 21.98 47.65 21.98 49.48C22.73 47.53 22.99 45.25 22.77 42.62C21.27 42.23 19.96 42.68 18.84 43.99Z" fill="#D0BA98" fill-opacity="1.000000" fill-rule="evenodd"/>
	<path id="Vector" d="M12.56 46.73C9.71 47.58 6.83 48.04 3.92 48.11C4.94 49.01 6.12 49.47 7.46 49.48C9.45 49.71 11.15 48.79 12.56 46.73Z" fill="#D1B996" fill-opacity="1.000000" fill-rule="evenodd"/>
	<path id="Vector" d="M137.43 2.81C136.38 2.81 135.33 2.81 134.29 2.81C134.29 4.18 134.29 5.55 134.29 6.93C143.12 6.52 150.06 12.47 155.1 24.77C157.67 39.74 158.85 55.07 158.63 70.76C158.25 96.63 157.6 122.48 156.67 148.31C155.06 160.07 153.75 171.97 152.74 184C150.47 209.69 144.58 232.34 135.07 251.95C132.19 252.87 129.31 252.87 126.43 251.95C124.99 250.35 123.82 248.29 122.9 245.78C121.2 240.12 119.49 234.63 117.8 229.3C116.19 213.53 114.1 197.97 111.51 182.63C110.06 168.77 108.23 155.04 106.02 141.45C105.36 140.98 105.09 140.07 105.23 138.71C104.1 130.72 102.39 122.94 100.13 115.37C99.02 113.6 97.84 112 96.59 110.57C86.14 108.44 75.67 106.61 65.18 105.07C51.98 100.13 39.67 91.44 28.27 78.99C21.56 67.97 21.04 56.08 26.7 43.3C28.77 42.62 30.87 42.39 32.98 42.62C32.78 46.05 32.52 49.48 32.19 52.91C32.46 54.51 32.72 56.11 32.98 57.72C33.51 55.73 34.03 53.9 34.55 52.23C34.83 49.66 35.62 47.6 36.91 46.05C39.52 45.59 42.14 45.13 44.76 44.68C45.2 44.15 45.46 43.46 45.54 42.62C41.67 40.11 37.74 37.13 33.76 33.69C30.11 33.01 26.44 32.78 22.77 33.01C18.63 33.78 14.71 35.61 10.99 38.5C10.33 40.79 9.28 42.4 7.85 43.3C5.6 43.55 3.5 44.24 1.57 45.36C1.94 47.29 2.72 48.21 3.92 48.11C6.83 48.04 9.71 47.58 12.56 46.73C12.82 46.73 13.08 46.73 13.35 46.73C14.6 44.57 16.17 43.66 18.06 43.99C18.32 43.99 18.58 43.99 18.84 43.99C19.96 42.68 21.27 42.23 22.77 42.62C22.99 45.24 22.73 47.53 21.98 49.48C21.39 56.29 21.13 63.16 21.2 70.07C23.82 77.39 27.22 83.34 31.41 87.92C32.61 87.82 33.39 88.73 33.76 90.66C36.79 92.62 39.67 94.91 42.4 97.52C44.34 97.87 45.91 99.25 47.11 101.64C49 101.31 50.57 102.23 51.83 104.39C53.23 104.2 54.54 104.66 55.75 105.76C59.51 107.15 63.17 108.52 66.75 109.88C77.09 112.09 87.56 114.15 98.16 116.06C101.07 132.02 103.42 148.26 105.23 164.79C106.35 167.55 106.87 170.76 106.8 174.4C106.8 175.31 106.8 176.23 106.8 177.14C107.92 179.91 108.44 183.11 108.37 186.75C108.38 189.58 108.65 192.33 109.16 194.99C109.97 196.95 110.49 199.24 110.73 201.85C111.85 204.62 112.37 207.82 112.3 211.46C112.78 212.68 113.04 214.05 113.08 215.58C114.2 218.34 114.72 221.55 114.65 225.19C116.05 230.41 117.1 235.9 117.8 241.66C118.9 242.31 119.42 243.68 119.37 245.78C125.49 261.33 132.69 263.16 140.96 251.27C144.27 239.7 147.54 228.26 150.78 216.95C150.8 212.26 151.59 208.14 153.13 204.6C153.03 202.14 153.29 199.85 153.92 197.73C153.73 194.44 154.25 191.69 155.49 189.5C155.49 188.58 155.49 187.67 155.49 186.75C155.69 181.89 156.21 177.32 157.06 173.02C157.37 168.2 157.9 163.63 158.63 159.3C159 148.75 159.52 138.22 160.2 127.72C161.48 97.92 161.22 68.17 159.42 38.5C159.56 33.53 159.03 28.95 157.85 24.77C156.74 24.12 156.22 22.75 156.28 20.65C154.18 13.1 150.78 8.53 146.07 6.93C143.59 6.25 141.23 5.34 139 4.18C138.48 3.72 137.95 3.26 137.43 2.81Z" fill="#D6924C" fill-opacity="1.000000" fill-rule="evenodd"/>
	<path id="Vector" d="M70.67 45.36C67.64 45.73 65.03 47.56 62.82 50.85C65.69 49.8 68.3 47.97 70.67 45.36Z" fill="#9DB7BF" fill-opacity="1.000000" fill-rule="evenodd"/>
	<path id="Vector" d="M18.06 43.99C16.17 43.66 14.6 44.57 13.35 46.73C15.23 47.06 16.8 46.15 18.06 43.99Z" fill="#D2B289" fill-opacity="1.000000" fill-rule="evenodd"/>
	<path id="Vector" d="M148.42 43.99C145.79 45.53 143.17 47.36 140.57 49.48C143.1 51.21 145.46 50.52 147.64 47.42C148.23 46.5 148.49 45.36 148.42 43.99Z" fill="#7D8D93" fill-opacity="1.000000" fill-rule="evenodd"/>
	<path id="Vector" d="M105.23 138.71C104.83 134.74 105.35 131.54 106.8 129.1C107.08 122.25 106.55 115.62 105.23 109.19C105.37 106.88 105.9 106.65 106.8 108.51C106.08 104.95 104.77 102.21 102.87 100.27C99.84 99.85 96.96 98.93 94.23 97.52C87.21 97.01 80.41 95.19 73.82 92.03C69.3 92.81 65.11 91.44 61.25 87.92C60.55 87.08 59.77 86.62 58.89 86.54C56.81 85.95 54.98 84.57 53.4 82.42C50.05 80.47 46.65 78.87 43.19 77.62C40.57 75.59 38.48 72.62 36.91 68.7C35.56 67.14 35.04 64.85 35.33 61.83C34.65 58.79 34.39 55.59 34.55 52.23C34.03 53.9 33.51 55.73 32.98 57.72C32.72 56.11 32.46 54.51 32.19 52.91C32.52 49.48 32.78 46.05 32.98 42.62C30.87 42.39 28.77 42.62 26.7 43.3C21.04 56.08 21.56 67.97 28.27 78.99C39.67 91.44 51.98 100.13 65.18 105.07C75.67 106.61 86.14 108.44 96.59 110.57C97.84 112 99.02 113.6 100.13 115.37C102.39 122.94 104.1 130.72 105.23 138.71Z" fill="#ECAE65" fill-opacity="1.000000" fill-rule="evenodd"/>
	<path id="Vector" d="M111.51 42.62C109.6 44.5 107.5 45.87 105.23 46.73C103.57 47.96 102 49.56 100.52 51.54C97.2 51.64 94.06 52.79 91.09 54.97C89.81 56.83 88.77 56.37 87.95 53.6C85.23 53.08 82.87 54.46 80.88 57.72C80.36 56.34 79.84 54.97 79.31 53.6C76.83 54.83 75 57.35 73.82 61.15C74.38 63.25 75.16 65.08 76.17 66.64C75.42 69.33 74.37 71.62 73.03 73.5C73.29 74.19 73.55 74.87 73.82 75.56C77.47 69.77 81.66 68.39 86.38 71.44C86.47 68.72 85.95 66.43 84.81 64.58C85.2 64.12 85.6 63.66 85.99 63.21C88.33 67 91.07 68.14 94.23 66.64C96.76 61.86 99.9 59.12 103.66 58.4C105.76 57.26 107.59 57.95 109.16 60.46C111.09 60.81 112.66 62.18 113.87 64.58C116.45 65.17 118.8 66.54 120.94 68.7C122.25 69.85 123.17 71.68 123.69 74.19C124.34 81.98 125 89.76 125.65 97.52C126.13 104.31 128.23 108.43 131.93 109.88C131.9 114.05 131.12 117.71 129.57 120.86C129.33 124.63 129.59 128.29 130.36 131.84C131.47 132.53 132 133.91 131.93 135.96C132.59 136.43 132.85 137.34 132.72 138.71C133.46 136.76 133.72 134.47 133.5 131.84C131.51 128.53 131.51 125.33 133.5 122.23C133.37 113.98 133.5 105.75 133.89 97.52C134.05 94.94 134.44 92.65 135.07 90.66C135.8 80.67 136.06 70.61 135.86 60.46C134.29 60.46 132.72 60.46 131.14 60.46C130.68 56.19 129.37 52.76 127.22 50.17C124.05 49.93 120.9 49.24 117.8 48.11C118.15 47.01 118.68 46.55 119.37 46.73C120.32 45.83 121.37 44.91 122.51 43.99C118.88 42.63 115.21 42.17 111.51 42.62Z" fill="#626A6D" fill-opacity="1.000000" fill-rule="evenodd"/>
	<path id="Vector" d="M112.3 48.11C106.62 50.25 106.23 53.92 111.12 59.09C111.51 58.63 111.91 58.17 112.3 57.72C111.38 54.53 111.38 51.32 112.3 48.11Z" fill="#B6D8E2" fill-opacity="1.000000" fill-rule="evenodd"/>
	<path id="Vector" d="M111.51 42.62C108.99 42.4 106.89 43.78 105.23 46.73C107.5 45.87 109.6 44.5 111.51 42.62Z" fill="#9EB8C1" fill-opacity="1.000000" fill-rule="evenodd"/>
	<path id="Vector" d="M111.51 42.62C115.21 42.17 118.88 42.63 122.51 43.99C121.37 44.91 120.32 45.83 119.37 46.73C120.67 46.73 121.98 46.73 123.29 46.73C123.29 44.9 123.29 43.07 123.29 41.24C119.21 40.8 115.29 41.26 111.51 42.62Z" fill="#A2BDC6" fill-opacity="1.000000" fill-rule="evenodd"/>
	<path id="Vector" d="M87.95 53.6C88.77 56.37 89.81 56.83 91.09 54.97C90.05 54.51 89 54.06 87.95 53.6Z" fill="#91A8AF" fill-opacity="1.000000" fill-rule="evenodd"/>
	<path id="Vector" d="M70.67 45.36C68.3 47.97 65.69 49.8 62.82 50.85C58.57 54.48 54.12 57.45 49.47 59.77C49.21 60.23 48.95 60.69 48.69 61.15C49.34 61.38 49.99 61.6 50.65 61.83C58.43 58.84 65.89 54.5 73.03 48.79C76.7 48.34 80.36 47.88 84.03 47.42C84.29 46.96 84.55 46.5 84.81 46.05C80.11 45.36 75.39 45.13 70.67 45.36Z" fill="#6B7579" fill-opacity="1.000000" fill-rule="evenodd"/>
	<path id="Vector" d="M127.22 54.97C126.43 54.97 125.65 54.97 124.86 54.97C125.21 59.26 126.52 62.46 128.79 64.58C129.66 62.9 129.8 61.07 129.18 59.09C128.36 57.89 127.71 56.52 127.22 54.97Z" fill="#B5D6E0" fill-opacity="1.000000" fill-rule="evenodd"/>
	<path id="Vector" d="M153.13 50.85C152.96 65.74 152.44 80.39 151.56 94.78C151.64 107.16 151.38 119.52 150.78 131.84C150.82 139.02 150.3 145.89 149.21 152.43C149.21 153.35 149.21 154.26 149.21 155.18C149.32 161.92 148.79 168.33 147.64 174.4C147.1 180.9 146.31 187.31 145.28 193.61C145.26 198.3 144.47 202.42 142.92 205.97C142.56 208.82 142.03 211.57 141.35 214.2C141.23 216.09 141.36 217.92 141.75 219.7C144.37 209.63 146.98 199.56 149.6 189.5C153.87 157.91 155.57 125.89 154.71 93.41C154.7 78.73 154.18 64.55 153.13 50.85Z" fill="#D48E47" fill-opacity="1.000000" fill-rule="evenodd"/>
	<path id="Vector" d="M109.16 60.46C110.36 62.86 111.93 64.23 113.87 64.58C112.66 62.18 111.09 60.81 109.16 60.46Z" fill="#9EB8C0" fill-opacity="1.000000" fill-rule="evenodd"/>
	<path id="Vector" d="M27.48 70.07C27.35 67.29 27.49 64.54 27.87 61.83C28.18 62.6 28.57 63.05 29.05 63.21C28.8 61.08 28.01 60.17 26.7 60.46C26.46 63.97 26.72 67.18 27.48 70.07Z" fill="#E3C292" fill-opacity="1.000000" fill-rule="evenodd"/>
	<path id="Vector" d="M117.01 53.6C115.19 54.53 114.93 56.36 116.22 59.09C119.85 61.23 122.87 64.89 125.26 70.07C125.98 66.22 125.32 63.24 123.29 61.15C121.72 60.23 120.15 59.32 118.58 58.4C117.54 57.28 117.02 55.68 117.01 53.6Z" fill="#ACCBD4" fill-opacity="1.000000" fill-rule="evenodd"/>
	<path id="Vector" d="M35.33 61.83C35.04 64.85 35.56 67.14 36.91 68.7C36.67 66.09 36.15 63.8 35.33 61.83Z" fill="#E1C89E" fill-opacity="1.000000" fill-rule="evenodd"/>
	<path id="Vector" d="M132.72 65.95C132.67 65.21 132.41 64.75 131.93 64.58C131.15 72.3 130.89 80.08 131.14 87.92C131.67 80.59 132.19 73.27 132.72 65.95Z" fill="#7C8B91" fill-opacity="1.000000" fill-rule="evenodd"/>
	<path id="Vector" d="M27.48 70.07C29.06 74.88 31.28 78.54 34.16 81.05C34.68 79.68 34.68 78.31 34.16 76.93C31.85 72.98 30.15 68.41 29.05 63.21C28.57 63.05 28.18 62.6 27.87 61.83C27.49 64.54 27.35 67.29 27.48 70.07Z" fill="#D4E3DC" fill-opacity="1.000000" fill-rule="evenodd"/>
	<path id="Vector" d="M100.52 71.44C97.15 74.59 94.53 79.16 92.66 85.17C93.34 86.66 94.13 86.88 95.02 85.86C97.16 81.33 98.99 76.52 100.52 71.44Z" fill="#6C777B" fill-opacity="1.000000" fill-rule="evenodd"/>
	<path id="Vector" d="M120.94 68.7C122.76 78.28 124.33 87.89 125.65 97.52C125 89.76 124.34 81.98 123.69 74.19C123.17 71.68 122.25 69.85 120.94 68.7Z" fill="#96AEB5" fill-opacity="1.000000" fill-rule="evenodd"/>
	<path id="Vector" d="M53.4 82.42C54.98 84.57 56.81 85.95 58.89 86.54C57.47 83.87 55.63 82.5 53.4 82.42Z" fill="#DECDAA" fill-opacity="1.000000" fill-rule="evenodd"/>
	<path id="Vector" d="M152.35 37.13C152.04 56.34 151.78 75.56 151.56 94.78C152.44 80.38 152.96 65.74 153.13 50.85C153.38 45.99 153.12 41.41 152.35 37.13Z" fill="#D2C4A7" fill-opacity="1.000000" fill-rule="evenodd"/>
	<path id="Vector" d="M61.25 87.92C65.11 91.44 69.29 92.81 73.82 92.03C69.76 90.34 65.57 88.97 61.25 87.92Z" fill="#D9D7C1" fill-opacity="1.000000" fill-rule="evenodd"/>
	<path id="Vector" d="M132.72 65.95C132.19 73.27 131.67 80.59 131.14 87.92C131.37 90.37 131.11 92.66 130.36 94.78C129.49 89.79 128.71 84.76 128 79.68C126.53 87.8 127.31 95.12 130.36 101.64C131.49 98.15 132.4 94.49 133.11 90.66C133.75 82.18 133.62 73.94 132.72 65.95Z" fill="#ADCCD5" fill-opacity="1.000000" fill-rule="evenodd"/>
	<path id="Vector" d="M145.28 96.15C141.53 96.39 141.27 97.76 144.5 100.27C146.3 99.75 146.57 98.38 145.28 96.15Z" fill="#78868B" fill-opacity="1.000000" fill-rule="evenodd"/>
	<path id="Vector" d="M94.23 97.52C96.96 98.93 99.84 99.85 102.87 100.27C102.55 99.28 102.02 98.59 101.3 98.21C98.96 97.53 96.6 97.3 94.23 97.52Z" fill="#E0CBA6" fill-opacity="1.000000" fill-rule="evenodd"/>
	<path id="Vector" d="M119.37 100.27C117.58 100.62 116.66 102.45 116.62 105.76C115.59 111.87 114.67 118.05 113.87 124.29C114.13 124.98 114.39 125.67 114.65 126.35C116.54 117.82 118.11 109.13 119.37 100.27Z" fill="#83949B" fill-opacity="1.000000" fill-rule="evenodd"/>
	<path id="Vector" d="M135.07 90.66C134.44 92.65 134.05 94.94 133.89 97.52C133.5 105.75 133.37 113.99 133.5 122.23C134.3 111.95 134.82 101.43 135.07 90.66Z" fill="#93AAB2" fill-opacity="1.000000" fill-rule="evenodd"/>
	<path id="Vector" d="M106.8 129.1C107.28 130.32 107.54 131.69 107.59 133.22C108.98 137.34 109.77 141.92 109.94 146.94C109.84 151.16 110.1 155.27 110.73 159.3C111.99 164.43 112.77 169.92 113.08 175.77C113.08 178.06 113.08 180.34 113.08 182.63C115.38 194.1 117.21 206 118.58 218.32C121.42 225.91 124.82 232.78 128.79 238.91C133.45 241.8 136.59 239.05 138.21 230.68C137.84 229.36 137.32 229.36 136.64 230.68C134.15 235.27 131.27 235.96 128 232.74C121.61 220.06 118.21 205.19 117.8 188.12C116.69 184.39 116.16 180.27 116.22 175.77C115.45 169.9 114.92 163.96 114.65 157.92C113.44 154.71 112.92 151.05 113.08 146.94C112.31 142.46 111.79 137.89 111.51 133.22C110.3 130 109.78 126.34 109.94 122.23C110.07 120.35 109.93 118.52 109.55 116.74C108.7 113.84 107.78 111.09 106.8 108.51C105.9 106.65 105.37 106.88 105.23 109.19C106.55 115.62 107.08 122.25 106.8 129.1Z" fill="#D4924F" fill-opacity="1.000000" fill-rule="evenodd"/>
	<path id="Vector" d="M106.8 129.1C105.35 131.54 104.83 134.74 105.23 138.71C105.09 140.07 105.36 140.98 106.02 141.45C105.89 138.22 106.02 135.01 106.41 131.84C106.71 132.61 107.1 133.06 107.59 133.22C107.54 131.69 107.28 130.32 106.8 129.1Z" fill="#D6D4BF" fill-opacity="1.000000" fill-rule="evenodd"/>
	<path id="Vector" d="M109.94 122.23C109.78 126.34 110.3 130 111.51 133.21C111.46 129.2 110.94 125.53 109.94 122.23Z" fill="#D0C3A8" fill-opacity="1.000000" fill-rule="evenodd"/>
	<path id="Vector" d="M129.58 120.86C128.84 125.19 128.32 129.77 128 134.59C128.71 135.56 128.98 136.93 128.79 138.71C129.31 137.47 129.83 136.1 130.36 134.59C130.9 135.09 131.42 135.54 131.93 135.96C132 133.91 131.47 132.53 130.36 131.84C129.59 128.29 129.33 124.63 129.58 120.86Z" fill="#99B2BA" fill-opacity="1.000000" fill-rule="evenodd"/>
	<path id="Vector" d="M107.59 133.22C107.76 138.24 108.55 142.82 109.94 146.94C109.77 141.92 108.98 137.34 107.59 133.22Z" fill="#D1C0A3" fill-opacity="1.000000" fill-rule="evenodd"/>
	<path id="Vector" d="M133.5 131.84C133.72 134.47 133.46 136.76 132.72 138.71C132.72 140.08 132.72 141.45 132.72 142.82C133.42 141.99 134.2 141.53 135.07 141.45C134.63 138.09 134.1 134.88 133.5 131.84Z" fill="#9CB5BE" fill-opacity="1.000000" fill-rule="evenodd"/>
	<path id="Vector" d="M140.57 137.33C139.88 137.15 139.36 137.61 139 138.71C140.91 144.03 143 149.07 145.28 153.81C146.13 152.62 146.26 151.25 145.67 149.69C143.8 145.74 142.1 141.62 140.57 137.33Z" fill="#7A888E" fill-opacity="1.000000" fill-rule="evenodd"/>
	<path id="Vector" d="M150.78 131.84C149.58 138.36 149.05 145.23 149.21 152.43C150.3 145.89 150.82 139.02 150.78 131.84Z" fill="#D0BD9E" fill-opacity="1.000000" fill-rule="evenodd"/>
	<path id="Vector" d="M113.08 146.94C112.92 151.05 113.44 154.71 114.65 157.92C114.82 153.81 114.29 150.15 113.08 146.94Z" fill="#D0C3A8" fill-opacity="1.000000" fill-rule="evenodd"/>
	<path id="Vector" d="M128 134.59C126.55 143.55 124.98 152.48 123.29 161.36C123.55 162.5 123.82 163.64 124.08 164.79C126.04 156.28 127.61 147.58 128.79 138.71C128.98 136.93 128.71 135.56 128 134.59Z" fill="#7F9096" fill-opacity="1.000000" fill-rule="evenodd"/>
	<path id="Vector" d="M135.07 141.45C134.2 141.53 133.42 141.99 132.72 142.82C131.3 145.5 130.51 148.7 130.36 152.43C131.67 157.01 132.98 161.58 134.29 166.16C134.03 167.53 133.76 168.91 133.5 170.28C132.72 169.36 131.93 168.45 131.14 167.53C130.88 168.45 130.62 169.36 130.36 170.28C132.52 174.62 133.57 179.65 133.5 185.38C134.03 193.16 134.55 200.93 135.07 208.71C134.94 199.09 135.07 189.48 135.46 179.89C135.68 178.63 136.08 177.72 136.64 177.14C137 174.04 137.79 171.3 139 168.91C138.35 167.69 137.57 167.23 136.64 167.53C136.77 164.75 136.64 162 136.25 159.3C134.59 157.1 133.41 154.35 132.72 151.06C133.88 148.12 134.66 144.92 135.07 141.45Z" fill="#687175" fill-opacity="1.000000" fill-rule="evenodd"/>
	<path id="Vector" d="M149.21 155.18C148.19 161.28 147.66 167.68 147.64 174.4C148.79 168.33 149.32 161.92 149.21 155.18Z" fill="#D0BD9D" fill-opacity="1.000000" fill-rule="evenodd"/>
	<path id="Vector" d="M110.73 159.3C110.79 165.25 111.58 170.74 113.08 175.77C112.77 169.92 111.99 164.43 110.73 159.3Z" fill="#D0C0A3" fill-opacity="1.000000" fill-rule="evenodd"/>
	<path id="Vector" d="M106.02 141.45C108.23 155.04 110.06 168.77 111.51 182.63C112.08 183.21 112.47 184.12 112.69 185.38C113.05 184.56 113.19 183.65 113.08 182.63C113.08 180.34 113.08 178.06 113.08 175.77C111.58 170.74 110.79 165.25 110.73 159.3C110.1 155.27 109.84 151.16 109.94 146.94C108.55 142.82 107.76 138.24 107.59 133.21C107.1 133.06 106.71 132.61 106.41 131.84C106.02 135.01 105.89 138.22 106.02 141.45Z" fill="#CDE3E2" fill-opacity="1.000000" fill-rule="evenodd"/>
	<path id="Vector" d="M105.23 164.79C105.16 168.43 105.68 171.63 106.8 174.4C106.87 170.76 106.35 167.55 105.23 164.79Z" fill="#D0B995" fill-opacity="1.000000" fill-rule="evenodd"/>
	<path id="Vector" d="M136.64 177.14C136.08 177.72 135.68 178.63 135.46 179.89C135.07 189.48 134.94 199.09 135.07 208.71C135.7 198.4 136.23 187.88 136.64 177.14Z" fill="#A5C3CB" fill-opacity="1.000000" fill-rule="evenodd"/>
	<path id="Vector" d="M116.22 175.77C116.16 180.27 116.69 184.39 117.79 188.12C117.86 183.62 117.33 179.5 116.22 175.77Z" fill="#CFC5AC" fill-opacity="1.000000" fill-rule="evenodd"/>
	<path id="Vector" d="M106.8 177.14C106.73 180.78 107.25 183.98 108.37 186.75C108.44 183.11 107.92 179.91 106.8 177.14Z" fill="#D0BD9D" fill-opacity="1.000000" fill-rule="evenodd"/>
	<path id="Vector" d="M133.5 185.38C133.24 193.66 133.5 201.9 134.29 210.09C134.76 209.92 135.03 209.46 135.07 208.71C134.55 200.93 134.03 193.16 133.5 185.38Z" fill="#83959B" fill-opacity="1.000000" fill-rule="evenodd"/>
	<path id="Vector" d="M113.08 182.63C113.19 183.65 113.05 184.56 112.69 185.38C112.47 184.12 112.08 183.21 111.51 182.63C114.1 197.97 116.19 213.53 117.8 229.3C118.73 228.66 119.26 227.29 119.37 225.19C119.19 222.84 118.92 220.55 118.58 218.32C117.21 206 115.38 194.1 113.08 182.63Z" fill="#D1D0BE" fill-opacity="1.000000" fill-rule="evenodd"/>
	<path id="Vector" d="M145.28 193.61C143.86 197.24 143.07 201.36 142.92 205.97C144.47 202.42 145.26 198.3 145.28 193.61Z" fill="#D2AB7D" fill-opacity="1.000000" fill-rule="evenodd"/>
	<path id="Vector" d="M110.73 201.85C110.73 202.77 110.73 203.68 110.73 204.6C110.96 207.21 111.48 209.5 112.3 211.46C112.37 207.82 111.85 204.62 110.73 201.85Z" fill="#D1BD9E" fill-opacity="1.000000" fill-rule="evenodd"/>
	<path id="Vector" d="M113.08 215.58C113.01 219.22 113.54 222.42 114.65 225.19C114.72 221.55 114.2 218.34 113.08 215.58Z" fill="#D1BC9C" fill-opacity="1.000000" fill-rule="evenodd"/>
	<path id="Vector" d="M117.8 241.66C117.74 243.75 118.26 245.13 119.37 245.78C119.42 243.68 118.9 242.31 117.8 241.66Z" fill="#CFC8B0" fill-opacity="1.000000" fill-rule="evenodd"/>
</svg>
